<?xml version="1.0" encoding="UTF-8"?>
<svg width="1200" height="400" viewBox="0 0 1200 400" xmlns="http://www.w3.org/2000/svg">
  <!-- Background -->
  <rect width="1200" height="400" fill="#f0f8ff"/>
  
  <!-- Mountains -->
  <path d="M0 400 L200 200 L400 400" fill="#8B4513"/>
  <path d="M200 400 L400 150 L600 400" fill="#A0522D"/>
  <path d="M400 400 L600 250 L800 400" fill="#8B4513"/>
  <path d="M600 400 L800 180 L1000 400" fill="#A0522D"/>
  <path d="M800 400 L1000 220 L1200 400" fill="#8B4513"/>
  
  <!-- Water System -->
  <path d="M100 300 L300 300 L500 300 L700 300 L900 300 L1100 300" stroke="#1E90FF" stroke-width="4" fill="none"/>
  <circle cx="300" cy="300" r="20" fill="#1E90FF"/>
  <circle cx="500" cy="300" r="20" fill="#1E90FF"/>
  <circle cx="700" cy="300" r="20" fill="#1E90FF"/>
  <circle cx="900" cy="300" r="20" fill="#1E90FF"/>
  
  <!-- Sprinkler System -->
  <path d="M200 250 L400 250 L600 250 L800 250 L1000 250" stroke="#4682B4" stroke-width="3" fill="none"/>
  <circle cx="400" cy="250" r="15" fill="#4682B4"/>
  <circle cx="600" cy="250" r="15" fill="#4682B4"/>
  <circle cx="800" cy="250" r="15" fill="#4682B4"/>
  <circle cx="1000" cy="250" r="15" fill="#4682B4"/>
  
  <!-- Fire Detection Sensors -->
  <circle cx="150" cy="150" r="10" fill="#FF4500"/>
  <circle cx="350" cy="150" r="10" fill="#FF4500"/>
  <circle cx="550" cy="150" r="10" fill="#FF4500"/>
  <circle cx="750" cy="150" r="10" fill="#FF4500"/>
  <circle cx="950" cy="150" r="10" fill="#FF4500"/>
  
  <!-- Control Center -->
  <rect x="1000" y="100" width="150" height="80" fill="#2F4F4F" rx="10"/>
  <rect x="1020" y="120" width="110" height="40" fill="#3CB371" rx="5"/>
  <circle cx="1050" cy="140" r="5" fill="#FFD700"/>
  <circle cx="1070" cy="140" r="5" fill="#FFD700"/>
  <circle cx="1090" cy="140" r="5" fill="#FFD700"/>
  
  <!-- Connection Lines -->
  <path d="M150 150 L150 300" stroke="#808080" stroke-width="2" stroke-dasharray="5,5" fill="none"/>
  <path d="M350 150 L350 300" stroke="#808080" stroke-width="2" stroke-dasharray="5,5" fill="none"/>
  <path d="M550 150 L550 300" stroke="#808080" stroke-width="2" stroke-dasharray="5,5" fill="none"/>
  <path d="M750 150 L750 300" stroke="#808080" stroke-width="2" stroke-dasharray="5,5" fill="none"/>
  <path d="M950 150 L950 300" stroke="#808080" stroke-width="2" stroke-dasharray="5,5" fill="none"/>
</svg> 