<?xml version="1.0" encoding="UTF-8"?>
<svg width="1200" height="400" viewBox="0 0 1200 400" fill="none" xmlns="http://www.w3.org/2000/svg">
  <!-- Detection Sensors -->
  <g transform="translate(100, 200)">
    <circle cx="0" cy="0" r="40" fill="#10B981" opacity="0.1"/>
    <circle cx="0" cy="0" r="30" fill="#10B981" opacity="0.2"/>
    <circle cx="0" cy="0" r="20" fill="#10B981"/>
    <path d="M-15 0H15M0 -15V15" stroke="white" stroke-width="2"/>
  </g>
  
  <!-- Water Delivery -->
  <g transform="translate(400, 200)">
    <path d="M-50 0H50" stroke="#3B82F6" stroke-width="4" stroke-dasharray="20 10"/>
    <circle cx="0" cy="0" r="20" fill="#3B82F6"/>
    <path d="M-10 -20L10 20M10 -20L-10 20" stroke="white" stroke-width="2"/>
  </g>
  
  <!-- Control Center -->
  <g transform="translate(700, 200)">
    <rect x="-40" y="-40" width="80" height="80" rx="10" fill="#F8FAFC" stroke="#1E293B" stroke-width="2"/>
    <path d="M-20 -20H20M-20 0H20M-20 20H20" stroke="#1E293B" stroke-width="2"/>
  </g>
  
  <!-- Connection Lines -->
  <path d="M140 200H360M440 200H660M740 200H960" stroke="#CBD5E1" stroke-width="2" stroke-dasharray="10 10"/>
</svg> 